<svg xmlns="http://www.w3.org/2000/svg" width="30.247" height="29.748" viewBox="0 0 30.247 29.748">
  <g id="Group_139" data-name="Group 139" transform="translate(-41.035 -77)">
    <path id="Icon_awesome-hand-holding" data-name="Icon awesome-hand-holding" d="M29.683,22.925a1.738,1.738,0,0,0-2.237,0l-4.852,3.88a3.343,3.343,0,0,1-2.1.735H14.283a.84.84,0,1,1,0-1.68h4.111a1.748,1.748,0,0,0,1.749-1.4A1.682,1.682,0,0,0,18.483,22.5h-8.4a6.18,6.18,0,0,0-3.891,1.381l-2.442,1.98H.84A.843.843,0,0,0,0,26.7v5.041a.843.843,0,0,0,.84.84H19.575a3.365,3.365,0,0,0,2.1-.735l7.939-6.354A1.679,1.679,0,0,0,29.683,22.925Z" transform="translate(41.035 74.166)" fill="#114b5f"/>
    <g id="Icon_ionic-ios-paw" data-name="Icon ionic-ios-paw" transform="translate(44.603 77)">
      <path id="Path_20" data-name="Path 20" d="M21.522,5.639a1.008,1.008,0,0,0-.166-.014v0h-.018c-1.014,0-1.977,1.194-2.2,2.779-.244,1.687.433,3.18,1.507,3.337a1.241,1.241,0,0,0,.184.014c1.014,0,1.977-1.194,2.2-2.779C23.273,7.289,22.6,5.8,21.522,5.639Z" transform="translate(-8.784 -5.625)" fill="#114b5f"/>
      <path id="Path_21" data-name="Path 21" d="M22.542,5.625Z" transform="translate(-9.975 -5.625)" fill="#114b5f"/>
      <path id="Path_22" data-name="Path 22" d="M29.354,11.86a1.335,1.335,0,0,0-.5-.1h-.018a3.162,3.162,0,0,0-2.461,2.2c-.641,1.576-.346,3.19.664,3.6a1.335,1.335,0,0,0,.5.1,3.148,3.148,0,0,0,2.484-2.2C30.659,13.888,30.359,12.275,29.354,11.86Z" transform="translate(-11.178 -7.739)" fill="#114b5f"/>
      <path id="Path_23" data-name="Path 23" d="M17.444,19.317c-1.281-2.01-1.834-2.766-3.3-2.766s-2.023.761-3.3,2.766c-1.1,1.715-3.314,1.858-3.867,3.314a2.112,2.112,0,0,0-.166.839,2.141,2.141,0,0,0,2.139,2.143c1.466,0,3.462-1.106,5.2-1.106s3.729,1.106,5.195,1.106a2.137,2.137,0,0,0,2.134-2.143,2.115,2.115,0,0,0-.171-.839C20.754,21.17,18.541,21.032,17.444,19.317Z" transform="translate(-4.555 -9.389)" fill="#114b5f"/>
      <path id="Path_24" data-name="Path 24" d="M13.075,11.755a1.241,1.241,0,0,0,.184-.014c1.079-.157,1.752-1.65,1.507-3.337-.23-1.59-1.194-2.779-2.2-2.779a1.241,1.241,0,0,0-.184.014c-1.079.157-1.752,1.65-1.507,3.337C11.1,10.562,12.066,11.755,13.075,11.755Z" transform="translate(-5.938 -5.625)" fill="#114b5f"/>
      <path id="Path_25" data-name="Path 25" d="M6.7,17.571c1.009-.415,1.3-2.028.664-3.6a3.148,3.148,0,0,0-2.484-2.2,1.335,1.335,0,0,0-.5.1c-1.009.415-1.3,2.028-.664,3.6a3.148,3.148,0,0,0,2.484,2.2A1.335,1.335,0,0,0,6.7,17.571Z" transform="translate(-3.372 -7.739)" fill="#114b5f"/>
    </g>
  </g>
</svg>
